# xmcd CD database file
#
# Track frame offsets:
#	150
#	38910
#	63450
#	94475
#	119637
#	165115
#	194292
#	217555
#	234407
#	283217
#
# Disc length: 4125 seconds
#
# Revision: 0
# Processed by: cddbd v1.5.2PL0 Copyright (c) Steve Scherf et al.
# Submitted via: CDex 1.51
#
DISCID=89101b0a
DTITLE=Kakalla - The Seeds of Analog Rebellion
DYEAR=2004
DGENRE=Jazz
TTITLE0=Sir Charles's Transmogrification
TTITLE1=The Ghosts of Dirty Laundry
TTITLE2=Caustic Raptures of the Cloven Hoof
TTITLE3=The Sea, The Bells
TTITLE4=The Refraction of Helios
TTITLE5=Maleficent Oblations to A God of Benevolence
TTITLE6=The Death of Sysyphus
TTITLE7=The Grand Inquisitor
TTITLE8=From These Hands, Sadness Flows
TTITLE9=The Farthest Shore
EXTD=YEAR: 2004
EXTT0=
EXTT1=
EXTT2=
EXTT3=
EXTT4=
EXTT5=
EXTT6=
EXTT7=
EXTT8=
EXTT9=
PLAYORDER=
